<?xml version="1.0" encoding="utf-8"?>
<!-- Generator: Adobe Illustrator 27.0.0, SVG Export Plug-In . SVG Version: 6.00 Build 0)  -->
<svg version="1.1" id="Layer_1" xmlns="http://www.w3.org/2000/svg" xmlns:xlink="http://www.w3.org/1999/xlink" x="0px" y="0px"
	 viewBox="0 0 1920 1080" style="enable-background:new 0 0 1920 1080;" xml:space="preserve">
<style type="text/css">
	.st0{fill:#4296A2;}
	.st1{fill:#F04746;}
	.st2{fill:#F2EEEB;}
	.st3{fill:#1A683B;}
	.st4{fill:#F0A887;}
	.st5{fill:#FFFFFF;}
	.st6{fill:none;}
</style>
<g>
	<path class="st0" d="M657.27,561.48c5.17-1.86,10.52-3.14,15.77-4.73c4.48-1.35,8.99-2.64,13.67-4.01
		c-0.77-0.81-1.66-0.95-2.44-1.28c-19.2-8.03-38.41-16.05-57.61-24.08c-2.5-1.05-2.49-1.08-2.49-3.81c0-0.88-0.01-1.76-0.02-2.63
		c0.14-0.09,0.28-0.17,0.42-0.26c4.96,0.03,9.91,0.05,14.87,0.08c0.82,0.67,1.85,0.92,2.8,1.29c33.19,12.95,66.38,25.87,99.57,38.81
		c26.34,10.27,52.68,20.56,79.02,30.83c2.85,1.11,2.87,1.11,3.87-1.87c2.48-7.41,3.55-15.07,3.79-22.84
		c0.2-6.56-0.07-13.1-0.87-19.62c-1.21-9.85-3.31-19.5-6.12-29.02c-0.57-1.92-1.59-2.68-3.25-3.3
		c-29.1-10.88-58.18-21.8-87.27-32.71c-27.89-10.46-55.78-20.94-83.67-31.39c-1.63-0.61-3.21-1.43-4.97-1.66
		c-3.31-1.3-6.62-2.59-9.93-3.89c0.01-0.13,0.03-0.27,0.04-0.4c3.17-0.63,6.33-1.27,9.51-1.88c12.29-2.33,24.58-4.65,36.87-6.97
		c4.78-0.9,9.56-1.78,14.32-2.74c1.05-0.21,2.25-0.05,3.09-0.98c3.91,3.11,8.28,5.32,13.02,6.87c3.26,1.06,6.59,1.84,9.95,2.51
		c6.85,1.37,13.69,2.86,20.59,3.99c6.12,1,12.18,2.3,18.3,3.22c5.73,0.86,11.46,1.79,17.2,2.58c4.41,0.6,8.86,0.91,13.25,1.6
		c1.39,0.22,2.89-0.02,4.18,0.74c-0.36,1.1,0.44,1.21,1.16,1.3c2.22,0.26,4.44,0.51,6.67,0.73c7.07,0.71,14.15,1.38,21.22,2.1
		c7.15,0.73,14.29,1.51,21.44,2.25c6.75,0.7,13.5,1.36,20.25,2.04c7.63,0.78,15.25,1.57,22.88,2.35c5.08,0.52,10.17,1.02,15.25,1.55
		c8.5,0.89,16.99,1.8,25.48,2.69c5.48,0.58,10.95,1.21,16.44,1.7c4.53,0.4,9.04,1.1,13.6,1.24c0.66,0.9,1.35,1.78,1.98,2.7
		c3.44,5.04,7.33,9.69,11.88,13.76c2.73,2.45,5.73,4.42,9.65,4.02c1.35-0.14,2.68-0.39,4.01-0.65c7.1-1.39,13.83-3.89,20.46-6.71
		c6.7-2.85,13.25-6.01,19.34-10.05c3.11-2.06,3.09-2.05,6.09,0.02c1.12,0.77,1.86,1.65,1.97,3.08c0.08,1.01,0.24,2.08,1.03,2.88
		c1.76,1.76,3.63,3.38,5.93,4.42c1.17,0.53,2.47,1.04,3.7,0.73c1.38-0.35,2.29,0.19,3.27,0.92c3.6,2.66,7.23,5.27,10.81,7.96
		c0.94,0.7,1.91,1.16,3.06,1.23c5.46,0.31,10.88,0.12,16.13-1.55c8.34-2.66,13.89-8.08,15.83-16.73c1.33-5.91,2.19-11.92,3.07-17.93
		c0.58-4.03,1.15-8.06,1.67-12.09c0.16-1.23,0.62-2.11,1.92-2.36c2.12-0.4,3.82-1.47,5.17-3.14c10.9,3.15,21.79,6.3,32.68,9.46
		c14.8,4.29,29.6,8.62,44.42,12.87c1.59,0.46,2.61,1.24,3.35,2.71c2.9,5.76,4.75,11.86,5.8,18.2c1.91,11.44,1.86,22.92,0.65,34.41
		c-0.18,1.75-0.33,3.5-0.58,5.24c-0.17,1.19,0.22,1.67,1.44,1.89c5.58,1,11.14,2.12,16.71,3.17c12.79,2.43,25.58,4.84,38.37,7.27
		c0.47,0.09,0.94,0.2,1.39,0.36c0.91,0.33,1.43,0.99,1.53,1.96c0.1,1.07-0.32,1.92-1.28,2.36c-1.31,0.6-2.67,1.08-4,1.61
		c-0.76-0.08-1.39,0.33-2.05,0.58c-13.28,5.04-26.55,10.11-39.83,15.16c-20.89,7.94-41.78,15.87-62.66,23.82
		c-23.42,8.91-46.84,17.82-70.26,26.74c-6.49,2.47-12.95,4.99-19.43,7.49c-0.57-0.3-1.17-0.47-1.82-0.53
		c-1.66-0.15-3.34-0.29-4.97-0.6c-6.18-1.17-12.44-1.75-18.64-2.74c-4.16-0.66-8.34-1.22-12.5-1.83c-3.54-0.51-7.08-1.03-10.63-1.53
		c-4.17-0.58-8.35-1.13-12.52-1.72c-3.7-0.53-7.39-1.11-11.09-1.63c-4.09-0.58-8.19-1.11-12.29-1.68c-3.94-0.55-7.87-1.13-11.8-1.69
		c-3.86-0.55-7.72-1.07-11.58-1.62c-3.93-0.56-7.86-1.17-11.8-1.73c-3.86-0.55-7.73-1.03-11.59-1.59
		c-5.03-0.73-10.06-1.51-15.09-2.25c-4.17-0.62-8.33-1.28-12.51-1.79c-2.52-0.31-5.04-0.96-7.61-0.56
		c-3.38,0.52-6.76,1.06-10.14,1.63c-6.12,1.02-12.23,2.11-18.36,3.1c-6.6,1.07-13.22,2.02-19.82,3.08
		c-6.68,1.07-13.36,2.16-20.02,3.34c-0.94,0.17-1.75,0.07-2.55-0.26c-4.13-1.7-8.25-3.45-12.37-5.18
		c-9.49-3.98-18.99-7.96-28.48-11.94c-7.58-3.18-15.15-6.38-22.74-9.55c-3.39-1.42-6.79-2.79-10.2-4.15
		c-1.34-0.53-1.67-0.34-1.95,1.05c-0.45,2.18-0.84,4.37-1.27,6.56c-1.09,5.47-1.86,10.99-2.49,16.51
		c-0.45,4.03-0.92,8.06-1.16,12.13c-0.3,5.01-0.86,10-0.85,15.03c0.01,6-0.08,12,0.07,17.99c0.08,3.09,0.51,6.18,0.72,9.27
		c0.18,2.62,0.86,5.2,0.62,7.85c-5.24-0.82-10.5-1.59-15.73-2.49c-2.02-0.34-4.1-0.38-6.03-1.14c-0.24-2.21-0.38-4.44-0.74-6.64
		c-0.8-4.88-1.16-9.82-1.23-14.73c-0.17-12.28-0.63-24.57,0.8-36.83c0.42-3.63,0.78-7.27,1.3-10.89c0.82-5.67,1.86-11.3,3.35-16.83
		c0.24-0.88,0-1.25-0.86-1.59c-1.23-0.48-2.53-0.25-3.77-0.57c-2.15-0.54-2.42-0.36-2.89,1.88c-0.82,3.89-1.44,7.81-2.12,11.73
		c-0.9,5.17-1.55,10.37-2.17,15.57c-0.71,6-1.3,12.04-1.43,18.08c-0.23,10.44-0.44,20.89,0.76,31.32c0.21,1.81,0.55,3.62,0.58,5.46
		c0.03,1.84,0.03,1.84-1.88,2.16l0.02,0.01c-0.76-0.85-1.56-0.73-2.38-0.09c-4.48-0.44-8.88-1.34-13.31-2.07
		c-2.01-0.33-4.08-0.39-6.01-1.14c1.15,0,1.74-0.45,1.62-1.73c-0.2-2.14-0.36-4.3-0.65-6.41c-0.71-5.06-1.01-10.15-1.2-15.22
		c-0.27-7.35-0.12-14.71-0.04-22.06c0.03-2.86,0.28-5.74,0.56-8.58c0.47-4.82,0.98-9.64,1.73-14.44c0.83-5.27,1.85-10.5,3.06-15.69
		c0.23-1,0.54-2,1.93-2.08c-1.53-0.33-2.94-0.56-4.35-0.76c-4.09-0.58-8.18-1.17-12.27-1.74
		C665.45,562.6,661.36,562.04,657.27,561.48z"/>
	<path class="st1" d="M711.15,657.06c1.94,0.76,4.02,0.8,6.03,1.14c5.23,0.89,10.49,1.67,15.73,2.49
		c7.08,1.21,14.15,2.45,21.23,3.61c10.24,1.68,20.49,3.31,30.73,4.97c10.48,1.71,20.95,3.44,31.42,5.16
		c12.29,2.01,24.57,4.02,36.86,6.03c10.16,1.66,20.32,3.33,30.48,4.98c10.16,1.66,20.32,3.29,30.48,4.95
		c11.34,1.85,22.68,3.72,34.02,5.58c10.32,1.69,20.64,3.36,30.96,5.05c8.35,1.37,16.7,2.71,25.04,4.14
		c4.01,0.69,8.09,0.95,12.03,2.02c-0.67,0.64-1.58,0.76-2.4,1.04c-10.59,3.6-21.18,7.17-31.77,10.76
		c-7.26,2.46-14.52,4.94-21.79,7.38c-1.11,0.37-2.2,0.75-3.49,0.49c-11.43-2.28-22.88-4.43-34.31-6.73
		c-17.54-3.53-34.96-7.59-52.41-11.49c-19.09-4.27-38.17-8.59-57.25-12.89c-23.05-5.19-46.11-10.38-69.39-14.47
		c-7.02-1.23-14.07-2.11-21.22-1.66c-3.85,0.24-7.6,1.01-11.15,2.56c-6.97,3.06-11.91,8.26-15.3,14.94
		c-5.17,10.2-6.49,20.99-4.31,32.17c1.4,7.2,4.33,13.68,9.82,18.81c4.21,3.94,9.14,6.7,14.4,8.9c11.22,4.69,22.73,8.53,34.4,11.92
		c25.69,7.46,51.69,13.78,77.55,20.61c19.22,5.07,38.55,9.76,57.83,14.63c15.25,3.85,30.47,7.83,45.76,11.54
		c8.61,2.09,17.34,3.69,25.99,5.61c1.49,0.33,2.74,0.22,4.14-0.32c12.44-4.83,24.9-9.6,37.36-14.38
		c29.09-11.16,58.18-22.3,87.27-33.47c36.62-14.06,73.24-28.12,109.85-42.19c26.77-10.29,53.53-20.61,80.31-30.89
		c1.14-0.44,2.2-0.91,3.06-1.78c0.55,0.19,0.95,0.58,1.34,0.97c4.69,4.69,9.38,9.38,14.06,14.08c0.28,0.28,0.62,0.52,0.69,1.22
		c-32.78,12.49-65.62,25-98.47,37.51c0.01,0.17,0.03,0.35,0.04,0.52c21.26,4.04,42.51,8.08,63.77,12.12
		c0.04,0.13,0.08,0.26,0.12,0.39c-3.27,1.32-6.55,2.65-9.82,3.97c-2.42,0.82-4.86,1.56-7.25,2.46
		c-17.99,6.83-35.96,13.73-53.96,20.55c-28.6,10.84-57.22,21.64-85.83,32.46c-4.85,1.84-9.81,3.38-14.5,5.67
		c-7.92,3.87-12.59,10.14-14.14,18.75c-1.65,9.19-1.77,18.44-0.81,27.71c0.38,3.66,1.24,7.24,2.63,10.67
		c1.34,3.29,3.05,6.34,5.66,8.81c3.3,3.12,7.14,4.39,11.67,3.39c1.88-0.42,3.71-0.98,5.49-1.67c14.23-5.5,28.45-11.02,42.66-16.57
		c34.44-13.45,68.88-26.92,103.31-40.41c2.66-1.04,5.42-1.87,7.93-3.28c3.76-0.04,7.51-0.11,11.27-0.09
		c2.02,0.01,3.22,0.96,3.52,2.58c0.3,1.59-0.5,2.97-2.32,3.7c-6,2.42-12.02,4.79-18.03,7.18c-40.97,16.29-81.93,32.59-122.91,48.85
		c-8.91,3.53-17.7,7.38-26.79,10.42c-13.14,4.4-26.63,5.82-40.43,4.18c-7.78-0.92-15.46-2.41-23.19-3.62
		c-11.36-1.78-22.69-3.72-34.04-5.59c-13.39-2.21-26.79-4.42-40.18-6.61c-13.24-2.16-26.49-4.27-39.73-6.43
		c-13.08-2.14-26.15-4.34-39.23-6.48c-11.35-1.86-22.71-3.66-34.05-5.51c-10.09-1.65-20.17-3.34-30.25-5
		c-3.47-0.57-6.94-1.13-10.41-1.69c-0.55-0.51-1.23-0.51-1.91-0.45c0,0-0.02-0.01-0.02-0.01c-0.04-0.8,0.03-1.62-0.15-2.39
		c-1.32-5.59-2.22-11.23-2.85-16.94c-0.68-6.26-1.24-12.52-1.35-18.82c-0.07-4,0.4-7.97,0.51-11.95c0.06-2.31,0.23-4.62,0.57-6.9
		c0.7-4.64,1.55-9.26,2.34-13.88c0.3-1.76,0.32-1.84-1.4-2.26c-1.77-0.43-3.59-0.65-5.38-1.03c-3.96-0.84-7.91-1.76-11.88-2.59
		c-6.99-1.47-14-2.89-21-4.33c-3.73-0.77-7.46-1.55-11.19-2.34c-1.08-0.23-1.87,0-2.29,1.13c-0.5,1.35-1.1,2.66-1.58,4.01
		c-3.63,10.09-4.87,20.61-5.15,31.23c-0.17,6.52,0.37,13.05,1.23,19.54c0.64,4.82,1.37,9.61,2.4,14.36c0.28,1.3,0.83,2.61,0.51,4.01
		l-0.22,0.01c0,0-0.22-0.03-0.22-0.03c-0.43-0.45-0.95-0.47-1.51-0.32c-1.89-0.31-3.8-0.54-5.67-0.96
		c-8.05-1.82-14.08-8.12-15.29-16.27c-1.95-13.09-2.73-26.24-0.99-39.43c0.91-6.93,2.6-13.66,5.78-19.94
		c0.25-0.5,0.47-1.01,0.69-1.53c0.02-0.06-0.03-0.15-0.06-0.25c-0.34-0.55-0.96-0.45-1.48-0.57c-7.83-1.93-15.7-3.75-23.42-6.11
		c-7.83-2.39-15.36-5.45-22.09-10.23c-10.29-7.3-15.8-17.28-17.06-29.78c-1.13-11.23-0.2-22.35,1.24-33.47
		c0.84-6.5,1.86-12.97,4.06-19.19c3.01-8.51,7.46-16.07,14.27-22.12c3.26-2.89,6.89-5.18,10.85-6.98c0.94-0.43,1.9-0.84,2.84-1.27
		c0.26-0.07,0.52-0.15,0.78-0.22c0,0-0.02-0.01-0.02-0.01C704.16,656.49,707.67,656.72,711.15,657.06z"/>
	<path class="st2" d="M1279.11,698.28c-0.86,0.87-1.93,1.35-3.06,1.78c-26.78,10.28-53.54,20.6-80.31,30.89
		c-36.61,14.07-73.23,28.13-109.85,42.19c-29.09,11.16-58.18,22.31-87.27,33.47c-12.46,4.78-24.92,9.55-37.36,14.38
		c-1.41,0.55-2.65,0.65-4.14,0.32c-8.65-1.93-17.38-3.53-25.99-5.61c-15.29-3.7-30.51-7.68-45.76-11.54
		c-19.28-4.87-38.6-9.56-57.83-14.63c-25.86-6.82-51.86-13.14-77.55-20.61c-11.67-3.39-23.18-7.23-34.4-11.92
		c-5.26-2.2-10.19-4.96-14.4-8.9c-5.49-5.13-8.42-11.61-9.82-18.81c-2.18-11.18-0.85-21.97,4.31-32.17
		c3.38-6.68,8.32-11.89,15.3-14.94c3.55-1.56,7.3-2.32,11.15-2.56c7.15-0.45,14.2,0.43,21.22,1.66
		c23.28,4.09,46.34,9.28,69.39,14.47c19.08,4.3,38.16,8.62,57.25,12.89c17.45,3.9,34.87,7.97,52.41,11.49
		c11.43,2.3,22.88,4.45,34.31,6.73c1.29,0.26,2.37-0.12,3.49-0.49c7.27-2.44,14.53-4.92,21.79-7.38
		c10.59-3.59,21.19-7.16,31.77-10.76c0.82-0.28,1.73-0.4,2.4-1.04c0.64-0.07,1.26-0.06,1.91,0.04c7.65,1.22,15.32,2.38,23.06,2.91
		c5.92,0.4,11.82,0.3,17.7-0.53c8.44-1.19,16.56-3.54,24.44-6.68c14.47-5.76,28.88-11.67,43.29-17.56
		c40.74-16.63,81.47-33.28,122.2-49.94c4.18-1.71,7.89-4.2,11.29-7.17c1.33-1.17,2.53-2.45,2.93-4.28c2.11-0.69,4.22-1.42,6.34-2.06
		c4.26-1.28,8.3-3.22,12.69-4.08c-0.69,3.63-0.15,7.33-0.59,10.94c-0.47,3.83-0.02,7.66-0.45,11.44c-0.46,4.06-0.07,8.14-0.51,12.15
		c-0.38,3.43-0.03,6.86-0.45,10.24c-0.45,3.58-0.05,7.19-0.49,10.72c-0.47,3.75,0.01,7.51-0.48,11.19c-0.5,3.75-0.25,7.47-0.4,11.21
		C1278.6,696.62,1278.58,697.5,1279.11,698.28z"/>
	<path class="st3" d="M792.72,453.96c-1.3-0.77-2.8-0.52-4.19-0.74c-4.39-0.69-8.84-1-13.25-1.6c-5.74-0.79-11.47-1.72-17.2-2.58
		c-6.13-0.92-12.19-2.22-18.3-3.22c-6.89-1.13-13.73-2.62-20.59-3.99c-3.35-0.67-6.68-1.45-9.95-2.51
		c-4.74-1.54-9.11-3.76-13.02-6.87c-7.77-6.8-9.62-15.51-8.02-25.25c1.71-10.38,6.27-19.61,12.05-28.22
		c5.48-8.16,11.33-16.06,16.99-24.1c12.15-17.25,24.26-34.53,36.43-51.77c0.97-1.37,1.17-2.51,0.58-4.15
		c-3.2-8.79-6.58-17.49-10.84-25.83c-0.96-1.87-0.96-1.87,0.71-3.13c0.83-0.06,1.47-0.57,2.16-0.94c6.09-3.24,12.2-6.46,18.27-9.76
		c2.29-1.25,4.69-2.3,6.84-3.79c0.15-0.05,0.31-0.08,0.45-0.15c1.28-0.55,2.55-2.06,3.75-1.58c1.16,0.47,1.44,2.33,2.09,3.58
		c0.92,1.75,1.78,3.53,2.68,5.29c0.07,0.14,0.18,0.26,0.28,0.39c0.5,0.14,0.75-0.24,0.87-0.56c0.54-1.47,1.58-1.21,2.68-0.84
		c0.36,0.71,1.11,0.87,1.73,1.19c3.73,1.97,7.46,3.93,11.2,5.87c4.94,2.56,9.89,5.09,14.84,7.63c1.01,0.76,2.31,1.06,3.34,2.02
		c-2.07,1.91-3.06,4.47-4.28,6.87c-3.01,5.91-5.94,11.85-8.96,17.74c-0.57,1.1-0.6,1.98-0.03,3.11
		c9.93,19.76,19.82,39.54,29.66,59.34c0.66,1.33,1.46,1.59,2.8,1.55c9.4-0.33,18.66,0.61,27.72,3.22
		c8.38,2.41,16.09,6.16,22.93,11.6c2.5,1.99,4.87,4.14,6.84,6.68c-1.07,0.64-2.28,0.66-3.45,0.74c-7.74,0.5-15.35,1.89-22.91,3.52
		c-6.8,1.47-13.47,3.37-19.77,6.37c-8.43,4.02-15.87,9.52-22.81,15.68c-9.26,8.22-16.96,17.75-23.43,28.3
		C797.37,446.72,795.29,450.5,792.72,453.96z M758.63,389.36c0.26,0.15,0.35,0.23,0.39,0.21c5.55-2.25,11.08-4.53,16.64-6.74
		c1.05-0.42,0.96-1,0.75-1.87c-1.03-4.43-2-8.88-2.99-13.32c-0.35-1.57-0.59-3.18-1.34-5.03
		C767.48,371.75,763.05,380.56,758.63,389.36z"/>
	<path class="st2" d="M1050.34,617.72c6.48-2.5,12.94-5.02,19.43-7.49c23.42-8.92,46.84-17.83,70.26-26.74
		c20.89-7.94,41.78-15.87,62.66-23.82c13.28-5.05,26.55-10.12,39.83-15.16c0.66-0.25,1.29-0.67,2.05-0.58
		c-3.77,6.3-6.4,13.11-8.53,20.09c-1.29,4.23-2.05,8.59-2.59,13.01c-0.46,3.82-0.39,7.62-0.34,11.43c0.04,2.91,0.45,5.83,1.39,8.63
		c-0.09,0.56-0.06,1.1,0.09,1.65c1.32,4.6,3.19,8.96,5.65,13.08c2.13,3.56,4.93,6.59,7.56,9.76c-0.62,0.56-1.43,0.69-2.16,0.98
		c-49.59,19.35-99.18,38.7-148.78,58.04c-13.68,5.34-27.41,10.55-41.03,16.04c-5.66,2.28-10.67-1.47-11.54-6.34
		c-2.98-16.66-2.66-33.23,0.43-49.8C1046.14,632.79,1048.16,625.24,1050.34,617.72z"/>
	<path class="st4" d="M1104.08,442.41c-1.34,1.67-3.05,2.74-5.17,3.14c-1.3,0.25-1.76,1.12-1.92,2.36
		c-0.52,4.04-1.08,8.07-1.67,12.09c-0.87,6-1.74,12.01-3.07,17.93c-1.94,8.65-7.48,14.07-15.83,16.73
		c-5.26,1.67-10.68,1.86-16.13,1.55c-1.14-0.06-2.12-0.52-3.06-1.23c-3.58-2.69-7.21-5.31-10.81-7.96
		c-0.98-0.72-1.89-1.26-3.27-0.92c-1.24,0.31-2.53-0.2-3.7-0.73c-2.29-1.03-4.17-2.65-5.93-4.42c-0.79-0.79-0.95-1.86-1.03-2.88
		c-0.12-1.43-0.85-2.31-1.97-3.08c-3.01-2.07-2.98-2.09-6.09-0.02c-6.09,4.04-12.63,7.2-19.34,10.05
		c-6.63,2.81-13.36,5.32-20.46,6.71c-1.33,0.26-2.67,0.52-4.01,0.65c-3.92,0.4-6.92-1.58-9.65-4.02
		c-4.55-4.07-8.44-8.72-11.88-13.76c-0.63-0.92-1.32-1.8-1.98-2.7c-0.94-1.75-1.96-3.47-2.82-5.27c-2.03-4.25-3.97-8.54-5.96-12.81
		c-5.59-11.95-10.24-24.24-13.19-37.13c-0.71-3.08-1.47-6.15-1.91-9.33c0.99-0.24,1.68,0.24,2.4,0.49
		c7.35,2.51,14.89,4.13,22.66,4.48c4.07,0.18,8.07,0.91,12.14,1.14c1.15,0.07,2.5,0.07,3.45,0.83c1.24,0.99,1.77,0.51,2.54-0.59
		c3.69-5.2,7.55-10.29,11.21-15.52c2.28-3.27,4.9-6.3,6.76-9.86c0.7-0.31,1.01-0.99,1.43-1.57c4.38-6.08,8.75-12.16,13.13-18.24
		c1.33-1.85,2.7-3.67,4.06-5.52c0.8,0.47,1.41,0.83,2.02,1.19c1.41,1.99,3.48,3.28,5.26,4.86c6.71,5.91,13.52,11.69,20.3,17.52
		c8.89,7.65,17.79,15.3,26.68,22.96c1.87,1.62,3.74,3.25,5.54,4.94c0.89,0.84,1.57,0.83,2.42-0.05c1.82-1.91,3.75-3.71,5.55-5.63
		c2.15-2.29,4.85-3.63,7.74-4.62c13.06-4.51,26.13-8.97,39.2-13.45c4.31-1.48,8.61-2.96,12.91-4.44c0.66-0.23,1.28-0.59,2.18-0.36
		c-2.11,3.1-4.15,6.13-6.23,9.14c-4.04,5.85-8.1,11.68-12.15,17.52c-6.38,9.18-12.77,18.35-19.14,27.54
		C1104.8,440.83,1104.05,441.42,1104.08,442.41z M984.95,443.07c-0.08-0.22-0.15-0.25-0.17-0.1c0,0.02,0.12,0.06,0.19,0.09
		c0.68,3.7,2.24,7.12,3.47,10.64c0.16,0.46,0.54,0.97,1.06,0.63c2.11-1.34,4.47-2.2,6.88-3.48c-1.52-1.11-2.74-2.13-4.08-2.95
		C989.79,446.37,987.69,444.23,984.95,443.07z"/>
	<path class="st1" d="M994.38,388.33c-1.86,3.56-4.48,6.59-6.76,9.86c-3.65,5.23-7.51,10.32-11.21,15.52
		c-0.78,1.09-1.3,1.57-2.54,0.59c-0.95-0.76-2.3-0.76-3.45-0.83c-4.06-0.23-8.07-0.96-12.14-1.14c-7.77-0.35-15.31-1.96-22.66-4.48
		c-0.72-0.25-1.4-0.73-2.4-0.49c0.44,3.19,1.2,6.26,1.91,9.33c2.95,12.89,7.61,25.18,13.19,37.13c1.99,4.27,3.94,8.56,5.96,12.81
		c0.86,1.8,1.87,3.52,2.82,5.27c-4.56-0.14-9.06-0.84-13.6-1.24c-5.49-0.48-10.96-1.12-16.44-1.7c-8.49-0.89-16.99-1.8-25.48-2.69
		c-5.08-0.53-10.17-1.03-15.25-1.55c-7.63-0.78-15.25-1.58-22.88-2.35c-6.75-0.69-13.5-1.35-20.25-2.04
		c-7.15-0.74-14.29-1.52-21.44-2.25c-7.07-0.72-14.15-1.4-21.22-2.1c-2.22-0.22-4.45-0.46-6.67-0.73c-0.72-0.09-1.52-0.2-1.16-1.3
		c2.57-3.47,4.65-7.24,6.9-10.9c6.48-10.55,14.18-20.08,23.43-28.3c6.94-6.17,14.38-11.66,22.81-15.68c6.3-3,12.97-4.9,19.77-6.37
		c7.57-1.64,15.17-3.02,22.91-3.52c1.18-0.08,2.39-0.1,3.45-0.74c7.56-0.22,14.49-1.97,19.83-7.87
		c6.59-7.27,13.54-14.19,19.38-22.13c8.39-11.4,19.64-18.99,32.86-23.79c0.75-0.27,1.48-0.58,2.23-0.87c0.38,0.45,0.44,1,0.51,1.56
		c1.27,10.01,3.71,19.74,7.83,28.95c4.2,9.38,9.97,17.59,18.85,23.23C993.83,387.73,994.09,388.06,994.38,388.33z"/>
	<path class="st2" d="M642.33,449.3c1.76,0.23,3.34,1.05,4.97,1.66c27.9,10.45,55.78,20.92,83.67,31.39
		c29.09,10.91,58.17,21.83,87.27,32.71c1.66,0.62,2.68,1.38,3.25,3.3c2.81,9.52,4.9,19.17,6.12,29.02
		c0.8,6.52,1.07,13.06,0.87,19.62c-0.24,7.78-1.31,15.43-3.79,22.84c-1,2.97-1.02,2.98-3.87,1.87
		c-26.34-10.28-52.68-20.56-79.02-30.83c-33.19-12.94-66.38-25.87-99.57-38.81c-0.96-0.37-1.98-0.62-2.8-1.29
		c0-0.82,0.59-1.28,1.1-1.77c4.36-4.26,7.21-9.45,9.43-15.05c2.05-5.17,2.84-10.53,2.93-16.06c0.15-9.28-1.75-18.12-5.06-26.75
		c-1.09-2.83-2.62-5.46-3.53-8.35C643.89,451.46,642.52,450.73,642.33,449.3z M727.13,502.29c-0.18-0.12-0.36-0.3-0.57-0.38
		c-6.1-2.39-12.2-4.75-18.28-7.19c-1.12-0.45-1.99-0.24-2.92,0.36c-2.4,1.56-3.76,3.86-4.7,6.47c-0.87,2.42-1.41,4.92-1.74,7.45
		c-0.56,4.19-2.49,7.52-5.94,10c-2.86,2.05-5.67,4.17-8.48,6.27c-0.4,0.3-1.05,0.44-0.98,1.26c0.48-0.07,0.95-0.11,1.42-0.2
		c3.69-0.67,7.38-1.35,11.07-2c1.28-0.23,1.46-0.07,1.32,1.17c-0.28,2.56-0.9,5.03-1.91,7.4c-0.59,1.38-1.2,2.74-1.78,4.04
		c0.37,0.4,0.68,0.33,0.99,0.27c5.46-1.07,10.39-3.12,14.1-7.49c2.71-3.19,4.88-6.71,6.47-10.59c2.49-6.08,6.02-11.44,11.07-15.72
		C726.63,503.12,727.08,502.87,727.13,502.29z"/>
	<path class="st2" d="M1253.7,837.61c-2.51,1.41-5.27,2.24-7.93,3.28c-34.43,13.48-68.87,26.95-103.31,40.41
		c-14.21,5.55-28.43,11.07-42.66,16.57c-1.78,0.69-3.61,1.26-5.49,1.67c-4.53,1-8.37-0.27-11.67-3.39
		c-2.61-2.46-4.32-5.52-5.66-8.81c-1.4-3.43-2.26-7.01-2.63-10.67c-0.96-9.26-0.84-18.52,0.81-27.71
		c1.55-8.61,6.22-14.88,14.14-18.75c4.68-2.29,9.64-3.83,14.5-5.67c28.61-10.82,57.23-21.62,85.83-32.46
		c18-6.82,35.97-13.72,53.96-20.55c2.38-0.91,4.83-1.65,7.25-2.46c-0.09,1.4-0.93,2.54-1.55,3.68c-3.27,6.05-5.45,12.51-7,19.16
		c-1.41,6.08-1.44,12.34-0.99,18.51c0.34,4.72,1.61,9.32,3.7,13.68c2.11,4.41,4.73,8.43,8.01,12.02
		C1253.41,836.56,1253.71,837.01,1253.7,837.61z M1170.78,820.29c0.37,1.11,1.12,1.49,1.7,2.01c4.08,3.71,7.17,8.13,9.51,13.1
		c0.88,1.88,1.64,3.82,2.6,5.65c1.74,3.34,3.85,6.44,6.68,8.97c3.44,3.07,7.64,4.55,12.05,5.54c0.45,0.1,0.93,0.35,1.33-0.35
		c-1.73-3.96-3.9-7.91-3.64-12.73c4.65,0.8,9.08,1.57,13.56,2.34c0-1.05-0.68-1.25-1.17-1.62c-3.13-2.35-6.28-4.66-9.38-7.05
		c-1.81-1.39-3.11-3.17-3.65-5.45c-0.75-3.18-1.46-6.37-2.32-9.52c-0.88-3.21-2.26-6.14-5.29-7.98c-1.11-0.67-2.13-0.83-3.38-0.27
		c-2.03,0.92-4.15,1.66-6.23,2.48C1179.07,817.02,1174.99,818.63,1170.78,820.29z"/>
	<path class="st3" d="M994.38,388.33c-0.29-0.27-0.55-0.59-0.88-0.8c-8.88-5.64-14.66-13.85-18.85-23.23
		c-4.12-9.21-6.57-18.94-7.83-28.95c-0.07-0.56-0.14-1.11-0.51-1.56c-0.26-4.06-0.62-8.12-0.77-12.19
		c-0.35-9.78,0.57-19.49,2.31-29.1c2.63-14.49,6.52-28.64,11.85-42.38c2.96-7.64,6.77-14.79,11.76-21.32
		c6-7.86,13.94-12.49,23.48-14.63c8.14-1.83,16.33-1.71,24.55-0.73c2.62,0.31,5.21,0.78,7.82,1.13c1.66,0.22,3.3,0.39,4.99,0.04
		c7.01-1.45,13.48-0.04,19.42,3.9c4.19,2.77,7.58,6.37,10.47,10.43c5.61,7.89,8.96,16.7,10.72,26.17c1.2,6.46,1.74,12.98,1.92,19.54
		c0.28,10.31,0.7,20.59,2.34,30.8c1.09,6.81,2.91,13.41,5.05,19.94c1.41,4.33,2.79,8.66,3.65,13.14c0.96,5,0.61,10.03,0.3,15.06
		c-0.22,3.67-0.54,7.33-0.81,11c-1.06-2.74-2.04-5.53-3.21-8.22c-2.48-5.69-5.81-10.81-10.53-14.93
		c-5.21-4.55-11.24-7.83-17.34-10.98c-0.92-0.48-1.93-0.76-2.98-0.85c3.12-5.26,5.34-10.88,6.83-16.81
		c2.64-10.46,3.37-21.1,3.35-31.84c-0.01-4.41-0.97-8.55-2.65-12.56c-3.66-8.77-9.63-15.77-16.77-21.87
		c-2.74-2.34-5.65-4.45-8.65-6.43c-0.85-0.56-1.43-0.54-1.98,0.31c-0.22,0.33-0.48,0.64-0.72,0.96c-4.05,5.46-8.46,10.63-13.2,15.51
		c-9.48,9.75-19.99,18.15-32.07,24.49c-1.28,0.67-2.53,1.1-4.06,1.17c-4.37,0.19-6.65,2.08-7.58,5.99c-0.54,2.28-0.48,4.61,0,6.9
		c1.29,6.16,5.1,10.39,10.53,13.21c1.45,0.75,1.88,1.57,1.85,3.12c-0.1,5.83-0.03,11.67-0.09,17.51c-0.02,1.41,0.29,2.65,0.91,3.9
		c3.62,7.24,7.93,14.06,12.64,20.63c3.12,4.35,6.41,8.58,9.81,12.71c0.5,0.61,1.48,1.16,0.68,2.2c-2.8-2.1-5.62-4.16-8.37-6.31
		c-0.93-0.73-1.7-0.94-2.76-0.3c-1.29,0.78-2.65,1.42-3.99,2.12c-0.61-0.36-1.22-0.72-2.02-1.19c-1.36,1.84-2.72,3.67-4.06,5.52
		c-4.38,6.07-8.75,12.16-13.13,18.24C995.39,387.33,995.08,388.01,994.38,388.33z"/>
	<path class="st4" d="M1030.13,368.7c0.8-1.05-0.18-1.59-0.68-2.2c-3.4-4.14-6.69-8.36-9.81-12.71
		c-4.71-6.57-9.01-13.39-12.64-20.63c-0.62-1.24-0.93-2.49-0.91-3.9c0.07-5.84-0.01-11.67,0.09-17.51c0.03-1.55-0.4-2.37-1.85-3.12
		c-5.43-2.82-9.23-7.06-10.53-13.21c-0.48-2.29-0.54-4.62,0-6.9c0.93-3.91,3.22-5.8,7.58-5.99c1.52-0.07,2.78-0.5,4.06-1.17
		c12.09-6.34,22.6-14.73,32.07-24.49c4.74-4.88,9.14-10.05,13.2-15.51c0.24-0.32,0.51-0.62,0.72-0.96c0.55-0.85,1.14-0.87,1.98-0.31
		c3,1.99,5.92,4.09,8.65,6.43c7.13,6.1,13.11,13.11,16.77,21.87c1.68,4.02,2.64,8.15,2.65,12.56c0.02,10.74-0.71,21.39-3.35,31.84
		c-1.49,5.92-3.71,11.55-6.83,16.81c-1,0.84-1.56,2.02-2.34,3.02c-3.24,4.13-7.13,7.24-12.43,8.37c-1.26,0.27-2.53,0.26-3.78,0.5
		c-1.09,0.2-1.69,0.69-1.64,1.92c0.05,1.19-0.22,2.39-0.28,3.56c-0.14,2.72-0.75,5.36-1.07,8.04c-0.69,5.7-2.26,11.11-5.55,15.86
		c-1.23,1.78-2.37,3.86-4.72,4.57c-1.8-0.55-2.97-2.03-4.45-3.04C1033.34,371.24,1031.76,369.94,1030.13,368.7z M1043.91,317.37
		c3.03,3.14,6,5.29,9.6,6.28c3.26,0.9,6.54,0.68,9.3-1.57c1.85-1.51,3.55-3.22,4.67-5.39c0.41-0.8,0.99-1.55,1.14-2.81
		C1060.68,317.04,1052.63,317.58,1043.91,317.37z M1024.91,278.88c3.43-0.78,6.46-1.42,9.52-1.9c3.16-0.49,6.33-0.59,9.52-0.53
		c0.16,0,0.32,0,0.48,0c0.98-0.02,1.42-0.54,1.47-1.49c0.08-1.59-0.83-2.56-2.76-2.49c-4.39,0.17-8.74,0.67-12.82,2.44
		C1028.35,275.77,1026.45,276.76,1024.91,278.88z M1079.12,276.45c-0.29-0.36-0.4-0.56-0.57-0.69c-4.61-3.68-9.98-4.3-15.61-3.88
		c-0.49,0.04-0.93,0.22-1.3,0.54c-0.76,0.65-1.03,1.94-0.59,2.85c0.47,0.98,1.29,0.74,2.07,0.6c3.17-0.56,6.34-0.37,9.53-0.05
		C1074.72,276.03,1076.79,276.63,1079.12,276.45z M1062.16,285.29c2.1,1.25,4.24,2.19,6.2,3.55c1.54,1.07,3.59,0.85,4.78-0.69
		c1.29-1.68,2.87-2.91,4.48-4.17c0.38-0.3,0.86-0.65,0.79-1.4C1073.13,284.44,1067.71,285.03,1062.16,285.29z M1046.48,286.46
		c-0.02-0.18-0.05-0.36-0.07-0.53c-5.27,1.97-10.78,2.39-16.34,2.65c0.12,0.52,0.44,0.66,0.72,0.76c1.78,0.66,3.43,1.48,4.98,2.64
		c1.92,1.44,4.36,1.03,5.73-0.86c0.96-1.33,2.12-2.3,3.42-3.2C1045.51,287.51,1045.97,286.94,1046.48,286.46z"/>
	<path class="st4" d="M748.34,863.86c0.32-1.39-0.23-2.71-0.51-4.01c-1.03-4.75-1.76-9.54-2.4-14.36c-0.86-6.5-1.4-13.02-1.23-19.54
		c0.28-10.62,1.52-21.14,5.15-31.23c0.49-1.35,1.09-2.66,1.58-4.01c0.42-1.13,1.21-1.36,2.29-1.13c3.73,0.79,7.46,1.57,11.19,2.34
		c7,1.45,14,2.87,21,4.33c3.97,0.83,7.91,1.75,11.88,2.59c1.78,0.38,3.61,0.6,5.38,1.03c1.72,0.42,1.7,0.49,1.4,2.26
		c-0.79,4.63-1.64,9.24-2.34,13.88c-0.34,2.28-0.51,4.6-0.57,6.9c-0.1,3.99-0.58,7.95-0.51,11.95c0.12,6.3,0.67,12.56,1.35,18.82
		c0.62,5.71,1.52,11.35,2.85,16.94c0.18,0.76,0.11,1.59,0.15,2.39c-2.82,0.19-5.51-0.66-8.25-1.08c-8.56-1.31-17.09-2.79-25.63-4.19
		c-7.13-1.17-14.27-2.32-21.4-3.49C749.25,864.19,748.8,864,748.34,863.86z"/>
	<path class="st4" d="M771.41,255.49c-2.15,1.49-4.55,2.55-6.84,3.79c-6.06,3.3-12.17,6.52-18.27,9.76
		c-0.69,0.37-1.33,0.88-2.16,0.94c-1.09-1.05-1.18-2.59-1.82-3.86c-0.55-1.08-1.12-2.03-2.08-2.85c-1.71-1.46-2.81-3.46-4.14-5.25
		c-4.88-6.54-10.15-12.74-16.13-18.32c-2.77-2.58-5.73-4.88-9.19-6.42c-2.9-1.29-5.45-3.07-7.68-5.25
		c-5.38-5.27-11.93-8.47-18.81-11.18c-6.24-2.45-12.56-4.76-18.07-8.73c-0.65-0.47-1.3-0.94-1.85-1.5
		c-1.58-1.61-1.78-3.24-0.79-5.25c1.01-2.04,2.83-3.26,4.63-4.41c6.08-3.87,12.51-7.08,19.27-9.61c2.55-0.96,5.18-1.69,7.89-1.9
		c3.4-0.26,6.65,0.59,9.8,1.83c2.69,1.06,5.17,2.49,7.62,4.02c10.44,6.5,20.93,12.92,31.31,19.51c5.11,3.24,9.31,7.51,12.69,12.56
		c2.87,4.29,4.42,9.01,4.49,14.18c0.01,0.98,0.19,1.9,0.63,2.78c0.65,1.28,1.24,2.59,2.08,3.77c2.27,3.19,4.4,6.46,6.22,9.92
		C770.5,254.6,770.8,255.18,771.41,255.49z"/>
	<path class="st4" d="M811.97,276.31c-4.95-2.54-9.9-5.07-14.84-7.63c-3.74-1.94-7.47-3.9-11.2-5.87c-0.62-0.33-1.37-0.48-1.73-1.19
		c0.15-0.36,0.24-0.78,0.47-1.08c5.01-6.18,6.46-13.77,8.33-21.18c1.06-4.22,1.29-8.53,0.96-12.85c-0.26-3.34-0.68-6.66-1.09-9.98
		c-0.56-4.51-1.21-9-1.74-13.51c-0.13-1.13-0.35-2.21-0.81-3.23c-2.28-5.11-4.48-10.25-6.89-15.29c-2.45-5.13-2.21-9.85,1.56-14.25
		c1.51-1.76,3.06-3.49,5.1-4.67c3.16-1.83,6.32-1.91,9.51,0.02c3.33,2.01,5.52,5.06,7.5,8.25c4.45,7.17,7.41,15.02,10.27,22.92
		c1.85,5.11,3.67,10.22,5.37,15.38c1.38,4.2,3.87,7.66,6.74,10.93c2.52,2.88,5.18,5.65,7.39,8.8c1.3,1.84,2.38,3.81,3.05,5.95
		c1.4,4.49,0.14,8.57-2.48,12.21c-2.95,4.09-6.47,7.68-10.28,11.01c-3.25,2.84-6.46,5.71-10.07,8.1c-0.96,0.64-1.42,1.71-2.05,2.63
		C814.01,273.27,812.67,274.57,811.97,276.31z"/>
	<path class="st1" d="M1039.49,375.43c2.35-0.71,3.49-2.79,4.72-4.57c3.29-4.74,4.86-10.16,5.55-15.86
		c0.33-2.68,0.93-5.32,1.07-8.04c0.06-1.17,0.33-2.37,0.28-3.56c-0.05-1.23,0.55-1.71,1.64-1.92c1.25-0.23,2.52-0.23,3.78-0.5
		c5.3-1.13,9.19-4.24,12.43-8.37c0.79-1,1.35-2.18,2.34-3.02c1.05,0.1,2.06,0.38,2.98,0.85c6.1,3.15,12.13,6.43,17.34,10.98
		c4.72,4.12,8.05,9.24,10.53,14.93c1.18,2.69,2.15,5.48,3.21,8.22c1.4,6.39,3.14,12.69,5.06,18.95c0.21,0.67,0.6,1.31,0.49,2.15
		c-3.29,0.41-6.6,0.74-9.88,1.25c-5.3,0.81-10.48,2.12-15.35,4.41c-3.79,1.78-7.24,4.04-9.79,7.48c-0.9,1.21-1.48,2.6-2.05,3.87
		c-0.85,0.01-1.19-0.49-1.61-0.82c-10.31-8.2-20.61-16.4-30.91-24.62C1040.64,376.73,1039.79,376.35,1039.49,375.43z"/>
	<path class="st3" d="M657.27,561.48c4.09,0.56,8.19,1.12,12.28,1.69c4.09,0.57,8.18,1.15,12.27,1.74c1.41,0.2,2.82,0.43,4.35,0.76
		c-1.39,0.09-1.69,1.08-1.93,2.08c-1.21,5.19-2.23,10.41-3.06,15.69c-0.75,4.8-1.26,9.62-1.73,14.44c-0.28,2.84-0.52,5.72-0.56,8.58
		c-0.08,7.35-0.23,14.72,0.04,22.06c0.19,5.07,0.49,10.17,1.2,15.22c0.3,2.11,0.45,4.27,0.65,6.41c0.12,1.28-0.47,1.73-1.62,1.73
		c-5.6-0.89-11.2-1.77-16.8-2.66c-2.44-0.39-4.88-0.82-7.33-1.21c-2.17-0.35-2.16-0.34-2.66-2.6c-1.07-4.84-1.93-9.72-2.63-14.62
		c-1.48-10.46-2.35-20.97-1.99-31.55c0.31-8.97,1.34-17.85,4.1-26.44c1.05-3.28,2.34-6.46,4-9.48
		C656.23,562.65,656.41,561.8,657.27,561.48z"/>
	<path class="st4" d="M1247.79,621.58c-2.63-3.17-5.42-6.2-7.56-9.76c-2.46-4.11-4.34-8.47-5.65-13.08
		c-0.16-0.55-0.19-1.09-0.09-1.65c9.63,1.38,19.26,2.78,28.89,4.13c8.53,1.2,17.08,2.27,25.6,3.59c4.27,0.66,3.65-0.3,3.63,4.08
		c-0.01,1.74,0.69,3.82-0.37,5.13c-1.03,1.29-3.17,1.3-4.82,1.9c-1.8,0.66-3.61,1.28-5.41,1.92c-4.39,0.86-8.43,2.8-12.69,4.08
		c-2.13,0.64-4.23,1.37-6.34,2.06c-0.74-2.19-2.69-2.33-4.48-2.39C1254.94,621.48,1251.36,621.58,1247.79,621.58z"/>
	<path class="st3" d="M700.87,655.19c-0.26,0.07-0.52,0.15-0.78,0.22c-0.53-0.1-1.07-0.21-1.6-0.31
		C699.3,654.46,700.1,654.34,700.87,655.19z"/>
	<path class="st4" d="M805.01,873.03c0.69-0.05,1.36-0.06,1.91,0.45C806.24,873.54,805.52,873.71,805.01,873.03z"/>
	<path class="st4" d="M746.4,863.53c0.56-0.15,1.08-0.13,1.51,0.32C747.36,863.99,746.84,863.95,746.4,863.53z"/>
	<path class="st2" d="M624.57,520.69c-0.14,0.09-0.28,0.17-0.42,0.26C624.15,520.64,624.2,520.4,624.57,520.69z"/>
	<path class="st3" d="M1247.79,621.58c3.57-0.01,7.15-0.11,10.71,0.02c1.79,0.06,3.74,0.2,4.48,2.39c-0.4,1.82-1.6,3.11-2.93,4.28
		c-3.39,2.97-7.11,5.46-11.29,7.17c-40.73,16.66-81.46,33.31-122.2,49.94c-14.42,5.89-28.83,11.79-43.29,17.56
		c-7.88,3.14-16.01,5.49-24.44,6.68c-5.89,0.83-11.79,0.93-17.7,0.53c-7.74-0.53-15.41-1.69-23.06-2.91
		c-0.64-0.1-1.27-0.12-1.91-0.04c-3.94-1.07-8.02-1.33-12.03-2.02c-8.34-1.44-16.69-2.78-25.04-4.14
		c-10.32-1.69-20.64-3.36-30.96-5.05c-11.34-1.86-22.68-3.73-34.02-5.58c-10.16-1.66-20.32-3.3-30.48-4.95
		c-10.16-1.66-20.32-3.32-30.48-4.98c-12.29-2.01-24.57-4.02-36.86-6.03c-10.47-1.72-20.95-3.45-31.42-5.16
		c-10.24-1.67-20.49-3.29-30.73-4.97c-7.08-1.17-14.16-2.4-21.23-3.61c0.25-2.65-0.44-5.23-0.62-7.85
		c-0.21-3.09-0.63-6.18-0.72-9.27c-0.16-5.99-0.07-11.99-0.07-17.99c-0.01-5.03,0.55-10.02,0.85-15.03
		c0.24-4.06,0.71-8.1,1.16-12.13c0.62-5.53,1.4-11.05,2.49-16.51c0.44-2.18,0.83-4.38,1.27-6.56c0.28-1.39,0.61-1.58,1.95-1.05
		c3.41,1.36,6.81,2.73,10.2,4.15c7.59,3.17,15.16,6.37,22.74,9.55c9.49,3.98,18.99,7.96,28.48,11.94c4.12,1.73,8.24,3.48,12.37,5.18
		c0.8,0.33,1.6,0.43,2.55,0.26c6.66-1.18,13.34-2.28,20.02-3.34c6.6-1.06,13.22-2.01,19.82-3.08c6.13-0.99,12.24-2.08,18.36-3.1
		c3.38-0.57,6.75-1.11,10.14-1.63c2.57-0.39,5.09,0.26,7.61,0.56c4.18,0.51,8.34,1.17,12.51,1.79c5.03,0.74,10.06,1.52,15.09,2.25
		c3.86,0.56,7.73,1.04,11.59,1.59c3.94,0.56,7.86,1.16,11.8,1.73c3.86,0.55,7.72,1.08,11.58,1.62c3.93,0.56,7.87,1.14,11.8,1.69
		c4.09,0.57,8.2,1.1,12.29,1.68c3.7,0.52,7.39,1.11,11.09,1.63c4.17,0.59,8.35,1.14,12.52,1.72c3.54,0.5,7.08,1.02,10.63,1.53
		c4.17,0.6,8.34,1.17,12.5,1.83c6.2,0.98,12.46,1.57,18.64,2.74c1.64,0.31,3.31,0.44,4.97,0.6c0.66,0.06,1.25,0.23,1.82,0.53
		c-2.17,7.52-4.2,15.07-5.63,22.77c-3.09,16.58-3.4,33.15-0.43,49.8c0.87,4.87,5.89,8.62,11.54,6.34
		c13.62-5.49,27.35-10.7,41.03-16.04c49.59-19.34,99.19-38.69,148.78-58.04C1246.36,622.28,1247.18,622.14,1247.79,621.58z"/>
	<path class="st3" d="M711.15,657.06c-3.49-0.34-6.99-0.56-10.3-1.87c1.91-0.31,1.91-0.31,1.88-2.16c-0.03-1.84-0.37-3.65-0.58-5.46
		c-1.21-10.42-0.99-20.88-0.76-31.32c0.13-6.03,0.72-12.08,1.43-18.08c0.61-5.2,1.26-10.4,2.17-15.57c0.68-3.91,1.3-7.84,2.12-11.73
		c0.47-2.24,0.74-2.43,2.89-1.88c1.25,0.32,2.54,0.08,3.77,0.57c0.86,0.34,1.09,0.7,0.86,1.59c-1.49,5.54-2.53,11.17-3.35,16.83
		c-0.52,3.62-0.88,7.26-1.3,10.89c-1.43,12.26-0.97,24.55-0.8,36.83c0.07,4.91,0.43,9.85,1.23,14.73
		C710.77,652.61,710.91,654.84,711.15,657.06z"/>
	<path class="st5" d="M758.63,389.36c4.42-8.8,8.85-17.61,13.45-26.75c0.76,1.85,0.99,3.46,1.34,5.03
		c0.99,4.44,1.96,8.89,2.99,13.32c0.2,0.88,0.3,1.46-0.75,1.87c-5.56,2.21-11.1,4.49-16.64,6.74
		C758.98,389.59,758.89,389.51,758.63,389.36z"/>
	<path class="st1" d="M984.95,443.07c2.75,1.16,4.84,3.3,7.35,4.83c1.34,0.82,2.57,1.84,4.08,2.95c-2.41,1.28-4.77,2.14-6.88,3.48
		c-0.53,0.33-0.9-0.17-1.06-0.63c-1.23-3.52-2.78-6.94-3.47-10.64L984.95,443.07z"/>
	<path class="st1" d="M984.96,443.06c-0.07-0.03-0.19-0.07-0.19-0.09c0.03-0.15,0.09-0.12,0.17,0.1
		C984.95,443.07,984.96,443.06,984.96,443.06z"/>
	<path class="st1" d="M727.13,502.29c-0.05,0.58-0.5,0.83-0.85,1.13c-5.05,4.28-8.58,9.64-11.07,15.72
		c-1.59,3.88-3.76,7.4-6.47,10.59c-3.71,4.37-8.64,6.42-14.1,7.49c-0.31,0.06-0.62,0.13-0.99-0.27c0.57-1.3,1.19-2.66,1.78-4.04
		c1.01-2.37,1.63-4.84,1.91-7.4c0.14-1.24-0.04-1.4-1.32-1.17c-3.69,0.66-7.38,1.34-11.07,2c-0.47,0.08-0.94,0.13-1.42,0.2
		c-0.08-0.82,0.58-0.95,0.98-1.26c2.81-2.11,5.63-4.22,8.48-6.27c3.45-2.48,5.38-5.81,5.94-10c0.34-2.54,0.87-5.04,1.74-7.45
		c0.94-2.61,2.31-4.91,4.7-6.47c0.92-0.6,1.8-0.8,2.92-0.36c6.08,2.43,12.19,4.79,18.28,7.19
		C726.77,501.99,726.95,502.16,727.13,502.29z"/>
	<path class="st4" d="M1170.78,820.29c4.21-1.66,8.29-3.26,12.37-4.86c2.08-0.82,4.19-1.56,6.23-2.48c1.25-0.56,2.27-0.4,3.38,0.27
		c3.03,1.83,4.41,4.76,5.29,7.98c0.86,3.15,1.57,6.34,2.32,9.52c0.54,2.28,1.83,4.06,3.65,5.45c3.1,2.38,6.25,4.7,9.38,7.05
		c0.49,0.37,1.18,0.57,1.17,1.62c-4.48-0.77-8.91-1.54-13.56-2.34c-0.26,4.82,1.91,8.76,3.64,12.73c-0.4,0.7-0.88,0.45-1.33,0.35
		c-4.41-0.99-8.61-2.47-12.05-5.54c-2.83-2.53-4.94-5.63-6.68-8.97c-0.96-1.84-1.72-3.78-2.6-5.65c-2.34-4.97-5.44-9.39-9.51-13.1
		C1171.9,821.78,1171.15,821.39,1170.78,820.29z"/>
	<path class="st1" d="M1043.91,317.37c8.72,0.21,16.76-0.33,24.7-3.49c-0.15,1.26-0.73,2.02-1.14,2.81
		c-1.12,2.17-2.82,3.88-4.67,5.39c-2.76,2.25-6.03,2.47-9.3,1.57C1049.91,322.66,1046.94,320.51,1043.91,317.37z"/>
	<path class="st3" d="M1024.91,278.88c1.54-2.12,3.44-3.11,5.41-3.97c4.08-1.77,8.43-2.27,12.82-2.44c1.93-0.08,2.84,0.89,2.76,2.49
		c-0.05,0.96-0.49,1.48-1.47,1.49c-0.16,0-0.32,0.01-0.48,0c-3.19-0.06-6.36,0.04-9.52,0.53
		C1031.36,277.46,1028.33,278.1,1024.91,278.88z"/>
	<path class="st3" d="M1079.12,276.45c-2.33,0.18-4.4-0.42-6.48-0.64c-3.19-0.33-6.35-0.51-9.53,0.05c-0.78,0.14-1.6,0.38-2.07-0.6
		c-0.43-0.91-0.17-2.19,0.59-2.85c0.38-0.32,0.81-0.5,1.3-0.54c5.63-0.42,11,0.2,15.61,3.88
		C1078.71,275.89,1078.83,276.09,1079.12,276.45z"/>
	<path class="st3" d="M1062.16,285.29c5.55-0.26,10.97-0.85,16.24-2.71c0.07,0.75-0.4,1.1-0.79,1.4c-1.61,1.26-3.2,2.49-4.48,4.17
		c-1.18,1.54-3.23,1.76-4.78,0.69C1066.4,287.47,1064.26,286.54,1062.16,285.29z"/>
	<path class="st3" d="M1046.48,286.46c-0.52,0.49-0.98,1.05-1.56,1.45c-1.3,0.9-2.46,1.87-3.42,3.2c-1.37,1.89-3.81,2.3-5.73,0.86
		c-1.56-1.16-3.2-1.98-4.98-2.64c-0.27-0.1-0.6-0.24-0.72-0.76c5.56-0.26,11.07-0.68,16.34-2.65
		C1046.44,286.1,1046.46,286.28,1046.48,286.46z"/>
</g>
<rect x="495" y="75" class="st6" width="929.52" height="929.52"/>
</svg>
